<?xml version="1.0" encoding="utf-8"?>
<!-- Generator: Adobe Illustrator 22.0.1, SVG Export Plug-In . SVG Version: 6.00 Build 0)  -->
<svg version="1.1" id="compliance_icon" xmlns="http://www.w3.org/2000/svg" xmlns:xlink="http://www.w3.org/1999/xlink" x="0px"
	 y="0px" viewBox="0 0 30 30" style="enable-background:new 0 0 30 30;" xml:space="preserve">
<style type="text/css">
	.st0{fill:none;}
	.st1{opacity:0.3;fill:url(#满足合规贴合业务bgicon_copy_2_1_);enable-background:new    ;}
	.st2{fill:#3274FF;}
</style>
<rect id="Rectangle_2_copy_6" class="st0" width="30" height="30"/>
<linearGradient id="满足合规贴合业务bgicon_copy_2_1_" gradientUnits="userSpaceOnUse" x1="0.997" y1="11.2971" x2="27.004" y2="11.2971">
	<stop  offset="0" style="stop-color:#3274FF"/>
	<stop  offset="1" style="stop-color:#FFFFFF;stop-opacity:0"/>
</linearGradient>
<path id="满足合规贴合业务bgicon_copy_2" class="st1" d="M20.8,19.9h1c2.9-0.1,5.3-2.6,5.2-5.5c0.1-2.4-1.7-4.5-4.1-4.8
	c-0.1-2.1-1.8-3.7-3.9-3.7c-0.1,0-0.1,0-0.2,0h-0.2c-1.3-2.1-3.6-3.3-6-3.2C9,2.7,6,5.6,5.8,9.2C3.1,9.3,1,11.6,1,14.3
	c-0.1,2.9,2.3,5.4,5.2,5.5h14.6V19.9z"/>
<path id="满足合规贴合业务bgicon" class="st2" d="M23.8,21.9h-1v-1h1c2.4-0.1,4.3-2.1,4.2-4.5v-0.1c0.2-2-1.3-3.7-3.3-3.9
	c-0.1,0-0.2,0-0.3,0h-0.3v-0.3c0.1-1.7-1.1-3.1-2.8-3.2c-0.2,0-0.3,0-0.5,0h-0.6l-0.1-0.4c-1.1-1.9-3.2-3-5.4-2.9
	C11.6,5.5,8.9,8,8.9,11.1c0,0.1,0,0.2,0,0.3v0.7H8.2C6,12,4.1,13.8,4,16c0,0.1,0,0.2,0,0.3c-0.1,2.4,1.7,4.4,4.1,4.5h0.1h1v1h-1
	c-2.9-0.1-5.3-2.6-5.2-5.5c0-2.7,2.1-5,4.9-5.2c0.2-3.6,3.2-6.5,6.8-6.5c2.4,0,4.7,1.2,6,3.2h0.2c2.1-0.2,3.9,1.4,4,3.5
	c0,0.1,0,0.1,0,0.2c2.4,0.2,4.2,2.3,4.1,4.8C29.1,19.3,26.7,21.7,23.8,21.9z M13.1,13.4V14h-0.6v-0.6H13.1z M14.7,13.4V14h-0.6v-0.6
	H14.7z M15.7,13.4h0.7V14h-0.6C15.7,14,15.7,13.4,15.7,13.4z M17.6,13.4H18c3.4,0,6.2,1.8,6.2,6.2h-6.5v-6.2H17.6z M18.3,18.9h5.2
	c-0.1-2.8-2.3-4.9-5.1-4.9h-0.1V18.9z M16,15h0.3v1H16c-2.8,0-5,2.1-5.3,4.9h5.6l3.7,3.8c0.8-0.9,1.2-2,1.2-3.2v-0.6h1v0.6
	c-0.1,3.3-2.8,5.9-6.1,5.9H16c-3.4,0-6.2-2.8-6.2-6.2S12.6,15,16,15z M16.3,22.2v4.2c1.1,0,2.2-0.4,3.1-1.1L16.3,22.2z M15.7,26.4
	v-4.9h-4.9C11,24.1,13.1,26.2,15.7,26.4z"/>
</svg>
