<?xml version="1.0" encoding="utf-8"?>
<!-- Generator: Adobe Illustrator 22.0.1, SVG Export Plug-In . SVG Version: 6.00 Build 0)  -->
<svg version="1.1" id="fullscene_icon" xmlns="http://www.w3.org/2000/svg" xmlns:xlink="http://www.w3.org/1999/xlink" x="0px"
	 y="0px" viewBox="0 0 30 30" style="enable-background:new 0 0 30 30;" xml:space="preserve">
<style type="text/css">
	.st0{fill:none;}
	.st1{opacity:0.3;fill:url(#SVGID_1_);enable-background:new    ;}
	.st2{fill:#3274FF;}
</style>
<rect id="Rectangle_2_copy_2" class="st0" width="30" height="30"/>
<linearGradient id="SVGID_1_" gradientUnits="userSpaceOnUse" x1="1" y1="14" x2="28" y2="14">
	<stop  offset="0" style="stop-color:#3274FF"/>
	<stop  offset="1" style="stop-color:#FFFFFF;stop-opacity:0"/>
</linearGradient>
<rect x="1" y="2" class="st1" width="27" height="24"/>
<path id="全场景兜底抗Dbgicon" class="st2" d="M29,15.8c0,0.1-0.1,0.3-0.2,0.3l-2.3,1.5l2.3,1.5c0.2,0.1,0.2,0.4,0.1,0.6
	l-0.1,0.1L16.2,28c-0.1,0.1-0.3,0.1-0.4,0L3.2,19.8C3,19.7,3,19.4,3.1,19.2l0.1-0.1l2.3-1.5l-2.3-1.5C3,16,3,15.7,3.1,15.5l0.1-0.1
	L5.5,14l-2.3-1.5C3,12.4,2.9,12.2,3.1,12l0.1-0.1l12.6-8.1c0.1-0.1,0.3-0.1,0.4,0l12.6,8.1c0.2,0.1,0.2,0.4,0.1,0.6l-0.1,0.1
	L26.5,14l2.3,1.5C28.9,15.6,29,15.7,29,15.8z M4.2,19.5L16,27.1l11.8-7.6l-2.1-1.3l-9.5,6.1c-0.1,0.1-0.3,0.1-0.4,0l-9.5-6.1
	L4.2,19.5z M15.8,11c0.1-0.1,0.3-0.1,0.4,0l6.7,4.3L25,14l-9-5.8L7,14l2.1,1.3L15.8,11z M9.8,15.8l6.2,4l6.2-4l-6.2-4L9.8,15.8z
	 M16.2,20.7c-0.1,0.1-0.3,0.1-0.4,0l-6.7-4.3L7,17.7l9,5.8l9-5.8l-2.1-1.3L16.2,20.7z M4.2,15.8l2.1,1.3l2.1-1.3l-2.1-1.3L4.2,15.8z
	 M27.8,12.2L16,4.6L4.2,12.2l2.1,1.3l9.5-6.1c0.1-0.1,0.3-0.1,0.4,0l9.5,6.1L27.8,12.2z M25.8,14.5l-2.1,1.3l2.1,1.3l2.1-1.3
	L25.8,14.5z M16.3,13.7h-0.6v-0.6h0.6V13.7z M14.1,16.3h0.6V17h-0.6V16.3z M14.1,14.7h0.6v0.6h-0.6V14.7L14.1,14.7z M12.1,15.3h1v1
	h-1V15.3L12.1,15.3z M16.3,15.3h-0.6v-0.6h0.6V15.3L16.3,15.3z M16.3,17h-0.6v-0.6h0.6V17z M16.3,18.6h-0.6V18h0.6V18.6L16.3,18.6z
	 M18,15.3h-0.7v-0.6h0.6L18,15.3L18,15.3z M18,17h-0.7v-0.6h0.6C17.9,16.3,17.9,17,18,17z M19.9,16.3h-1v-1h1V16.3L19.9,16.3z
	 M28,8.9h0.6v0.6H28V8.9z M28,7.2h0.6v0.7H28C28,7.9,28,7.2,28,7.2z M28,5.6h0.6v0.6H28V5.6z M28,4h0.6v0.7H28C28,4.6,28,4,28,4z
	 M26.4,4H27v0.7h-0.6C26.4,4.6,26.4,4,26.4,4z M24.8,4h0.6v0.7h-0.6C24.8,4.6,24.8,4,24.8,4z M23.1,4h0.6v0.7h-0.6
	C23.1,4.6,23.1,4,23.1,4z M21.5,4h0.6v0.7h-0.6C21.5,4.6,21.5,4,21.5,4z M19.9,4h0.6v0.7h-0.6C19.9,4.6,19.9,4,19.9,4z M11.4,4h0.7
	v0.7h-0.7C11.4,4.6,11.4,4,11.4,4z M9.8,4h0.6v0.7H9.8C9.8,4.6,9.8,4,9.8,4z M8.2,4h0.7v0.7H8.2C8.2,4.6,8.2,4,8.2,4z M6.6,4h0.7
	v0.7H6.6C6.6,4.6,6.6,4,6.6,4z M4.9,4h0.7v0.7H4.9C4.9,4.6,4.9,4,4.9,4z M3.3,8.9H4v0.6H3.3V8.9z M3.3,7.2H4v0.7H3.3
	C3.3,7.9,3.3,7.2,3.3,7.2z M3.3,5.6H4v0.6H3.3V5.6z M3.3,4H4v0.7H3.3C3.3,4.6,3.3,4,3.3,4z M4,22.8H3.3v-0.6H4V22.8z M4,24.5H3.3
	v-0.7H4C4,23.8,4,24.4,4,24.5z M4,26.1H3.3v-0.6H4V26.1z M4,27.7H3.3V27H4V27.7z M5.6,27.7H4.9V27h0.7V27.7z M7.2,27.7H6.6V27h0.7
	L7.2,27.7L7.2,27.7z M8.9,27.7H8.2V27h0.7V27.7z M10.5,27.7H9.8V27h0.6C10.5,27,10.5,27.7,10.5,27.7z M12.1,27.7h-0.7V27h0.7V27.7z
	 M20.5,27.7h-0.6V27h0.6V27.7z M22.2,27.7h-0.6V27h0.6V27.7z M23.8,27.7h-0.6V27h0.6V27.7z M25.4,27.7h-0.6V27h0.6V27.7z M27,27.7
	h-0.6V27H27V27.7z M28.7,22.8H28v-0.6h0.6v0.6H28.7z M28.7,24.5H28v-0.7h0.6C28.7,23.8,28.7,24.4,28.7,24.5z M28.7,26.1H28v-0.6h0.6
	v0.6H28.7z M28.7,27.7H28V27h0.6v0.7H28.7z"/>
</svg>
