<svg id="图层_1" data-name="图层 1" xmlns="http://www.w3.org/2000/svg" xmlns:xlink="http://www.w3.org/1999/xlink" viewBox="0 0 32 32"><defs><style>.cls-1{opacity:0.3;isolation:isolate;fill:url(#未命名的渐变_2);}.cls-2{fill:#fff;}</style><linearGradient id="未命名的渐变_2" x1="2" y1="13.62" x2="24" y2="13.62" gradientUnits="userSpaceOnUse"><stop offset="0" stop-color="#fff"/><stop offset="1" stop-color="#fff" stop-opacity="0"/></linearGradient></defs><title>技术支持</title><path class="cls-1" d="M23.59,25.25H2.41A.45.45,0,0,1,2,24.76V2.48A.45.45,0,0,1,2.41,2H23.59a.45.45,0,0,1,.41.48V24.76A.45.45,0,0,1,23.59,25.25Z"/><path class="cls-2" d="M25.22,30a2.9,2.9,0,0,1-2.08-.86L11.76,17.76a6.39,6.39,0,0,1-1.69.24,6.05,6.05,0,0,1-5.76-7.92.6.6,0,0,1,.45-.42.65.65,0,0,1,.6.16L8,12.44a1.28,1.28,0,0,0,.92.38,1.26,1.26,0,0,0,.92-.38l.74-.75a1.29,1.29,0,0,0,.39-.92,1.27,1.27,0,0,0-.39-.92L8,7.23a.66.66,0,0,1-.16-.6.62.62,0,0,1,.41-.46,6.24,6.24,0,0,1,1.87-.29,6.07,6.07,0,0,1,5.83,7.75L27.29,25a2.93,2.93,0,0,1,0,4.14A3,3,0,0,1,25.22,30ZM11.94,16.4a.65.65,0,0,1,.46.19L24.05,28.25a1.66,1.66,0,0,0,2.35-2.34L14.74,14.26a.64.64,0,0,1-.14-.67,4.79,4.79,0,0,0-4.5-6.44,2.48,2.48,0,0,0-.39,0l1.78,1.77a2.56,2.56,0,0,1,.75,1.82,2.52,2.52,0,0,1-.75,1.82l-.75.74a2.57,2.57,0,0,1-1.82.76,2.53,2.53,0,0,1-1.82-.76L5.3,11.56a4.8,4.8,0,0,0,6.43,4.88.52.52,0,0,1,.21,0Z"/><path class="cls-2" d="M27,17.66a1.19,1.19,0,0,1-.85-.35h0l-1.76-1.76L22.94,17a.64.64,0,0,1-.9-.9l1.88-1.88a.63.63,0,0,1,.9,0L27,16.33l1.42-4.22L23,6.78l-2.8,2.81L21.6,11a.64.64,0,0,1,0,.91l-1.88,1.88a.64.64,0,0,1-.9-.9l1.44-1.43-1-1a1.21,1.21,0,0,1,0-1.69L22.2,5.84a1.19,1.19,0,0,1,1.69,0l5.41,5.41a1.2,1.2,0,0,1,.29,1.22l-1.43,4.28a1.08,1.08,0,0,1-.31.55,1.16,1.16,0,0,1-.85.36ZM8.72,30a2.93,2.93,0,0,1-2.07-5L11,20.68a.64.64,0,0,1,.9.9L7.54,25.9a1.67,1.67,0,0,0,0,2.34,1.65,1.65,0,0,0,2.34,0l4.33-4.33a.63.63,0,1,1,.89.9l-4.32,4.33A2.87,2.87,0,0,1,8.72,30Z"/></svg>