<svg id="图层_1" data-name="图层 1" xmlns="http://www.w3.org/2000/svg" xmlns:xlink="http://www.w3.org/1999/xlink" viewBox="0 0 32 32"><defs><style>.cls-1{opacity:0.3;isolation:isolate;fill:url(#未命名的渐变_2);}.cls-2{fill:#fff;}</style><linearGradient id="未命名的渐变_2" x1="3.13" y1="12.21" x2="29.39" y2="12.21" gradientTransform="matrix(0.99, 0.05, -0.06, 1.08, 0.56, 1.96)" gradientUnits="userSpaceOnUse"><stop offset="0" stop-color="#fff"/><stop offset="1" stop-color="#fff" stop-opacity="0"/></linearGradient></defs><title>商务咨询</title><path class="cls-1" d="M13.15,11.25a2.52,2.52,0,0,0,.38-3.52L10.87,4.12A2.83,2.83,0,0,0,7,3.47c-.1.08-.19.08-.19.17L4.24,5.89c-2.51,2.17.54,8.54,6.37,14.8s12,9.79,14.49,7.71l2.61-2.25a2.51,2.51,0,0,0,.21-3.71l-.18-.19-3.43-2.94a2.78,2.78,0,0,0-3.68,0L19,20.71a23.68,23.68,0,0,1-4.23-3.52,22.14,22.14,0,0,1-3.16-4.43l1.55-1.51Z"/><path class="cls-2" d="M22.6,27.47c-3,0-7.54-3.15-11.34-6.94a31.83,31.83,0,0,1-5.92-7.77c-1.64-3.32-1-5-.24-5.76L7.16,4.94a.65.65,0,0,1,.23-.24,2.84,2.84,0,0,1,4,.45l2.45,3.07A2.8,2.8,0,0,1,13.67,12l-1,1.15a19.15,19.15,0,0,0,2.67,3.41,19.3,19.3,0,0,0,3.39,2.66l1.08-1.08a2.8,2.8,0,0,1,3.79-.19l3.27,2.64a2.6,2.6,0,0,1,.84,1.89,2.86,2.86,0,0,1-.84,2.08l-2.14,2.14A3,3,0,0,1,22.6,27.47ZM8,5.39,5.77,7.66c-.82.82-.67,2.48.41,4.68a30.44,30.44,0,0,0,5.75,7.52C17.1,25,22.32,27.69,24.06,26l2.12-2.13a1.92,1.92,0,0,0,.58-1.39,1.72,1.72,0,0,0-.56-1.25L26,21.08l-3-2.41a1.85,1.85,0,0,0-2.54.12l-1.6,1.6-.32-.19a20,20,0,0,1-3.87-3,20.14,20.14,0,0,1-3-3.88L11.49,13,13,11.34a1.85,1.85,0,0,0,.13-2.53L10.67,5.72A1.89,1.89,0,0,0,8,5.39Z"/><path class="cls-2" d="M25.7,16h-.07a.46.46,0,0,1-.4-.53,8.12,8.12,0,0,0-2.39-6.92,8.37,8.37,0,0,0-6.51-2.09.47.47,0,0,1-.12-.94,9.48,9.48,0,0,1,7.28,2.34,9.17,9.17,0,0,1,2.67,7.75A.46.46,0,0,1,25.7,16Z"/><path class="cls-2" d="M22.14,14.6h-.07a.47.47,0,0,1-.39-.54,3.8,3.8,0,0,0-1.11-3.21,3.88,3.88,0,0,0-3-1A.47.47,0,0,1,17,9.47.46.46,0,0,1,17.43,9a4.85,4.85,0,0,1,3.78,1.21,4.82,4.82,0,0,1,1.4,4A.47.47,0,0,1,22.14,14.6Z"/></svg>