<?xml version="1.0" encoding="utf-8"?>
<!-- Generator: Adobe Illustrator 22.0.1, SVG Export Plug-In . SVG Version: 6.00 Build 0)  -->
<svg version="1.1" id="登录注册" xmlns="http://www.w3.org/2000/svg" xmlns:xlink="http://www.w3.org/1999/xlink" x="0px"
	 y="0px" viewBox="0 0 80 80" style="enable-background:new 0 0 80 80;" xml:space="preserve">
<style type="text/css">
	.st0{fill:#FFFFFF;}
	.st1{opacity:0.3;fill:#FFFFFF;enable-background:new    ;}
</style>
<path class="st0" d="M59.9,61.6C58.8,63.1,57,64,55.2,64H24.8c-1.8,0-3.6-0.9-4.7-2.4c-1.1-1.5-1.4-3.4-0.9-5.2
	c2-6.4,6.8-11.6,13-14c0.3-0.1,0.7-0.1,1,0.1c4,2.9,9.4,2.9,13.4,0c0.3-0.2,0.7-0.3,1-0.1c6.3,2.4,11.1,7.6,13,14
	C61.3,58.2,61,60.1,59.9,61.6z M56.8,56.8c-1.7-5-5.5-8.9-10.4-10.8c-4.2,2.7-9.6,2.7-13.8,0c-4.9,1.9-8.7,5.9-10.4,10.8
	c-0.3,1-0.1,2.1,0.5,2.9c0.7,0.8,1.7,1.3,2.7,1.3h28.2c1.1,0,2.1-0.5,2.7-1.3C57,58.9,57.2,57.8,56.8,56.8L56.8,56.8z M40,43.2
	c-7.5,0.1-13.6-5.9-13.7-13.4c-0.1-7.5,5.9-13.6,13.4-13.7c7.5-0.1,13.6,5.9,13.7,13.4c0,0,0,0.1,0,0.1C53.5,37,47.5,43.1,40,43.2
	L40,43.2z M40,20c-5.5,0-10,4.5-10,10c0,5.5,4.5,10,10,10c5.5,0,10-4.5,10-10C50,24.5,45.5,20,40,20L40,20z"/>
<path class="st1" d="M40,0C17.9,0,0,17.9,0,40s17.9,40,40,40c22.1,0,40-17.9,40-40S62.1,0,40,0z M40,75C20.7,75,5,59.3,5,40
	S20.7,5,40,5s35,15.7,35,35S59.3,75,40,75z"/>
</svg>
