<?xml version="1.0" encoding="utf-8"?>
<!-- Generator: Adobe Illustrator 22.0.1, SVG Export Plug-In . SVG Version: 6.00 Build 0)  -->
<svg version="1.1" id="导航" xmlns="http://www.w3.org/2000/svg" xmlns:xlink="http://www.w3.org/1999/xlink" x="0px" y="0px"
	 viewBox="0 0 62 47" style="enable-background:new 0 0 62 47;" xml:space="preserve">
<style type="text/css">
	.st0{opacity:0.3;fill:#FFFFFF;enable-background:new    ;}
	.st1{fill:#FFFFFF;}
</style>
<path id="导航-2" class="st0" d="M3.2,0h55.6C60.6,0,62,1.4,62,3.2s-1.4,3.2-3.2,3.2H3.2C1.4,6.4,0,5,0,3.2S1.4,0,3.2,0z
	 M3.2,40.6h55.6c1.8,0,3.2,1.5,3.1,3.2c0,1.7-1.4,3.1-3.1,3.1H3.2c-1.8,0-3.2-1.5-3.1-3.2C0.1,42,1.5,40.6,3.2,40.6z"/>
<path id="导航_copy" class="st1" d="M3.2,20.7h55.6c1.8,0,3.2,1.4,3.2,3.2s-1.4,3.2-3.2,3.2c0,0,0,0,0,0H3.2
	c-1.8,0-3.2-1.4-3.2-3.2C0,22.1,1.4,20.7,3.2,20.7z"/>
</svg>
