<?xml version="1.0" encoding="utf-8"?>
<!-- Generator: Adobe Illustrator 22.0.1, SVG Export Plug-In . SVG Version: 6.00 Build 0)  -->
<svg version="1.1" id="onestop_icon" xmlns="http://www.w3.org/2000/svg" xmlns:xlink="http://www.w3.org/1999/xlink" x="0px"
	 y="0px" viewBox="0 0 30 30" style="enable-background:new 0 0 30 30;" xml:space="preserve">
<style type="text/css">
	.st0{fill:none;}
	.st1{opacity:0.3;fill:url(#SVGID_1_);enable-background:new    ;}
	.st2{fill:#FFFFFF;}
</style>
<rect id="Rectangle_2_copy_4" class="st0" width="30" height="30"/>
<linearGradient id="SVGID_1_" gradientUnits="userSpaceOnUse" x1="2.4879" y1="3.5121" x2="20.4879" y2="21.5121">
	<stop  offset="0" style="stop-color:#FFFFFF"/>
	<stop  offset="1" style="stop-color:#FFFFFF;stop-opacity:0"/>
</linearGradient>
<path class="st1" d="M2,4c2.8-1.3,5.9-2,9-2c3.4,0.1,6.8,0.8,10,2v17c0,0-3,3-10,3s-9-3-9-3V4z"/>
<path id="一站式业务安全bgicon" class="st2" d="M21.5,28c-5.8-2.6-6.5-5.5-6.5-5.5v-9.7c2.1-0.6,4.3-0.9,6.5-1
	c2.2,0.1,4.4,0.4,6.5,1v9.8C28,22.5,27.3,25.4,21.5,28z M27,13.4c-3.6-0.9-7.4-0.9-11,0v9.1c1.2,2.1,3.2,3.8,5.5,4.5
	c2.3-0.8,4.3-2.4,5.5-4.5V13.4z M13.1,11.8l1,0v1h-1L13.1,11.8z M22.2,8.2c-1.6,1.2-5.3,1.9-8.8,1.9S6.2,9.1,4.6,7.9v3.6
	c0,1,3.4,2.6,8.8,2.6H14v0.7h-0.6c-4.6,0-9.4-1.2-9.4-3.2V6.9C4,4.9,8.8,4,13.4,4s9.4,0.9,9.4,2.9v3.6h-0.6
	C22.2,10.5,22.2,8.2,22.2,8.2z M13.4,4.6C8,4.6,4.6,5.9,4.6,6.9S8,9.5,13.4,9.5s8.8-1.6,8.8-2.6S18.8,4.6,13.4,4.6z M13.1,17h1v1h-1
	V17z M4.6,17c0,1,3.4,2.6,8.8,2.6H14v0.6h-0.6C8.8,20.2,4,19,4,17v-2.6l0.7,0C4.6,14.4,4.6,17,4.6,17z M13.1,22.2h1v1h-1V22.2z
	 M4.6,22.2c0,1,3.4,2.6,8.8,2.6H14v0.6h-0.6c-4.6,0-9.4-1.2-9.4-3.2v-2.6l0.7,0L4.6,22.2L4.6,22.2z"/>
</svg>
