<?xml version="1.0" encoding="utf-8"?>
<!-- Generator: Adobe Illustrator 22.0.1, SVG Export Plug-In . SVG Version: 6.00 Build 0)  -->
<svg version="1.1" id="server_icon" xmlns="http://www.w3.org/2000/svg" xmlns:xlink="http://www.w3.org/1999/xlink" x="0px"
	 y="0px" viewBox="0 0 30 30" style="enable-background:new 0 0 30 30;" xml:space="preserve">
<style type="text/css">
	.st0{fill:none;}
	.st1{opacity:0.3;fill:url(#满足合规贴合业务bgicon_copy_3_1_);enable-background:new    ;}
	.st2{fill:#FFFFFF;}
</style>
<rect class="st0" width="30" height="30"/>
<linearGradient id="满足合规贴合业务bgicon_copy_3_1_" gradientUnits="userSpaceOnUse" x1="6.0491" y1="4.461" x2="21.6307" y2="20.0426">
	<stop  offset="0" style="stop-color:#FFFFFF"/>
	<stop  offset="1" style="stop-color:#FFFFFF;stop-opacity:0"/>
</linearGradient>
<path id="满足合规贴合业务bgicon_copy_3" class="st1" d="M20.8,17.9h1c2.9-0.1,5.3-2.6,5.2-5.5c0.1-2.4-1.7-4.5-4.1-4.8
	c-0.1-2.1-1.8-3.7-3.9-3.7c-0.1,0-0.1,0-0.2,0h-0.2c-1.3-2.1-3.6-3.3-6-3.2c-3.6,0-6.6,2.9-6.8,6.5C3.1,7.3,1,9.6,1,12.3
	c-0.1,2.9,2.3,5.4,5.2,5.5H20.8z"/>
<path id="管家式服务bgicon" class="st2" d="M18,24.8v-3.9h-1V29h-0.6v-8.1h-0.6V29H15v-8.1h-1v3.9H3v-0.6h10.4v-3.2h-1v-1h-1.6
	v-0.6h1.6v-1h-1.6v-0.6h1.6V17h-1.6v-1h1.6v-0.6h-1.6v-0.7h1.6v-1h1v-1.6H14v1.6h1v-1.6h0.6v1.6h0.6v-1.6H17v1.6h1v-1.6h0.6v1.6h1v1
	h1.6v0.6h-1.6V16h1.6v1h-1.6v0.6h1.6v0.6h-1.6v1h1.6v0.6h-1.6v1h-1v3.2H29v0.6H18z M18.9,14.4h-5.9v5.9h5.9V14.4z M17.3,18.6h-2.6
	V16h2.6V18.6z M16.6,16.6h-1.3v1.3h1.3V16.6z M24.8,15v-0.3h0.3V15H24.8z M24.1,16.6h-0.6V16h0.6V16.6z M23.5,14.7h0.6v0.6h-0.6
	V14.7z M21.9,14.7h1v0.6h-1V14.7z M22.8,18.3h-1v-0.6h1V18.3z M21.9,16h1v1h-1V16z M18,11.1v-1h0.6v1H18z M17,11.1h-0.6v-1H17V11.1z
	 M16.3,8.5H17v1h-0.6V8.5z M15.7,11.1H15v-1h0.6V11.1z M15,8.5h0.6v1H15V8.5z M13.4,11.1v-1h0.6v1C14.1,11.1,13.4,11.1,13.4,11.1z
	 M7.2,14.7V15H6.9v-0.3H7.2z M7.9,14.7h0.6v0.6H7.9V14.7z M8.5,16.6H7.9V16h0.6V16.6z M10.1,18.3h-1v-0.6h1V18.3z M9.2,14.7h1v0.6
	h-1V14.7z M10.2,17h-1v-1h1C10.1,16,10.1,17,10.2,17z M23.8,20.2h-1.9v-1h1.9c2.4-0.1,4.3-2.1,4.2-4.5c0,0,0-0.1,0-0.1
	c0.2-2-1.3-3.7-3.3-3.9c-0.1,0-0.2,0-0.3,0h-0.3v-0.5c0.1-1.6-1.1-3-2.7-3.1c-0.2,0-0.4,0-0.6,0h-0.6l-0.1-0.4C19,5,16.9,3.9,14.7,4
	c-3.1-0.1-5.8,2.4-5.8,5.5c0,0.1,0,0.2,0,0.3v0.6H8.2C6,10.4,4.1,12.1,4,14.4c0,0.1,0,0.2,0,0.3c-0.1,2.4,1.7,4.4,4.1,4.5
	c0,0,0.1,0,0.1,0h1.9v1H8.2c-2.9-0.1-5.3-2.6-5.2-5.5c0-2.7,2.1-5,4.9-5.2C8.1,5.9,11.1,3,14.7,3c2.4,0,4.7,1.2,6,3.2h0.2
	c2.1-0.2,3.9,1.4,4,3.5c0,0.1,0,0.1,0,0.2c2.4,0.2,4.2,2.3,4.1,4.8C29.1,17.6,26.7,20.1,23.8,20.2z"/>
</svg>
