<?xml version="1.0" encoding="utf-8"?>
<!-- Generator: Adobe Illustrator 22.0.1, SVG Export Plug-In . SVG Version: 6.00 Build 0)  -->
<svg version="1.1" id="wholenet_icon" xmlns="http://www.w3.org/2000/svg" xmlns:xlink="http://www.w3.org/1999/xlink" x="0px"
	 y="0px" viewBox="0 0 30 30" style="enable-background:new 0 0 30 30;" xml:space="preserve">
<style type="text/css">
	.st0{fill:none;}
	.st1{opacity:0.3;fill:url(#全网联防联控bgicon_copy_3_1_);enable-background:new    ;}
	.st2{fill:#FFFFFF;}
</style>
<rect id="Rectangle_2_copy_5" class="st0" width="30" height="30"/>
<linearGradient id="全网联防联控bgicon_copy_3_1_" gradientUnits="userSpaceOnUse" x1="4.3168" y1="4.9893" x2="22.0107" y2="22.6833">
	<stop  offset="0" style="stop-color:#FFFFFF"/>
	<stop  offset="1" style="stop-color:#FFFFFF;stop-opacity:0"/>
</linearGradient>
<path id="全网联防联控bgicon_copy_3" class="st1" d="M25.7,13.8c0,1.5-1.1,2.9-2.8,4c0.5,2.1,0.2,3.8-0.8,4.8
	c-0.8,0.7-1.9,1.1-2.9,1.1c-0.6,0-1.3-0.1-1.9-0.2c-1.1,1.8-2.5,2.8-4,2.8s-2.9-1.1-4-2.9c-0.6,0.2-1.3,0.2-1.9,0.2
	c-1.1,0.1-2.1-0.3-2.9-1.1c-1.1-1.1-1.3-2.7-0.8-4.8c-1.8-1.1-2.9-2.5-2.9-4s1.1-2.9,2.8-4C3,7.7,3.3,6,4.3,5
	c0.8-0.7,1.9-1.1,2.9-1.1c0.6,0,1.3,0.1,1.9,0.2c1.1-1.8,2.5-2.8,4-2.8s2.9,1.1,4,2.8c0.6-0.2,1.3-0.2,1.9-0.2
	C20.2,3.9,21.2,4.2,22,5c1.1,1.1,1.3,2.7,0.8,4.8C24.6,10.9,25.7,12.3,25.7,13.8z"/>
<path id="全网联防联控bgicon" class="st2" d="M28.7,15.8c0,1.5-1.1,2.9-2.8,4c0.5,2.1,0.2,3.8-0.8,4.8
	c-0.8,0.7-1.9,1.1-2.9,1.1c-0.6,0-1.3-0.1-1.9-0.2c-1.1,1.8-2.5,2.8-4,2.8s-2.9-1.1-4-2.9c-0.6,0.2-1.3,0.2-1.9,0.2
	c-1.1,0.1-2.1-0.3-2.9-1.1c-1.1-1.1-1.3-2.7-0.8-4.8c-1.8-1.1-2.9-2.5-2.9-4s1.1-2.9,2.8-4C6,9.7,6.3,8,7.3,7
	c0.8-0.7,1.9-1.1,2.9-1.1c0.6,0,1.3,0.1,1.9,0.2c1.1-1.8,2.5-2.8,4-2.8s2.9,1.1,4,2.8c0.6-0.2,1.3-0.2,1.9-0.2
	C23.2,5.9,24.2,6.2,25,7c1.1,1.1,1.3,2.7,0.8,4.8C27.6,12.9,28.7,14.3,28.7,15.8z M22.1,25c0.9,0.1,1.7-0.2,2.4-0.8
	c0.8-0.8,1-2.2,0.7-3.9c-1.1,0.5-2.2,0.9-3.3,1.2c-0.3,1.2-0.7,2.3-1.2,3.3C21.1,24.9,21.6,25,22.1,25L22.1,25z M22.4,17
	c0.3-0.4,0.5-0.7,0.8-1.1c-0.2-0.4-0.5-0.8-0.8-1.1c0,0.4,0,0.7,0,1.1C22.4,16.2,22.4,16.6,22.4,17L22.4,17z M23.6,15.1
	c0.5-0.8,0.9-1.6,1.2-2.5c0-0.1,0.1-0.2,0.1-0.4C24,11.8,23,11.4,22,11.1c0.1,0.7,0.2,1.4,0.3,2.2C22.8,13.9,23.2,14.5,23.6,15.1
	L23.6,15.1z M23.6,16.6c-0.4,0.6-0.8,1.2-1.3,1.8c-0.1,0.8-0.2,1.5-0.3,2.2c1-0.3,2-0.6,2.9-1.1c0-0.1-0.1-0.2-0.1-0.4
	C24.5,18.2,24.1,17.4,23.6,16.6L23.6,16.6z M20,12c-0.5-0.5-1.1-1-1.6-1.5c-0.7-0.1-1.5-0.1-2.2-0.1s-1.5,0-2.2,0.1
	c-0.6,0.5-1.1,1-1.6,1.5s-1,1.1-1.5,1.6c-0.1,0.7-0.1,1.5-0.1,2.2s0,1.5,0.1,2.2c0.5,0.6,1,1.1,1.5,1.6s1.1,1,1.6,1.5
	c0.7,0.1,1.5,0.1,2.2,0.1c0.8,0,1.5,0,2.2-0.1c0.6-0.5,1.1-1,1.6-1.5s1-1.1,1.5-1.6c0.1-0.7,0.1-1.5,0.1-2.2s0-1.5-0.1-2.2
	C21.1,13,20.6,12.5,20,12L20,12z M21.4,12.2c-0.1-0.5-0.2-0.9-0.2-1.3c-0.4-0.1-0.9-0.2-1.3-0.2c0.3,0.2,0.5,0.5,0.8,0.8
	S21.1,11.9,21.4,12.2L21.4,12.2z M17.3,9.6c-0.4-0.3-0.7-0.5-1.1-0.8c-0.4,0.2-0.8,0.5-1.1,0.8c0.4,0,0.7,0,1.1,0
	C16.5,9.6,16.9,9.6,17.3,9.6z M12.5,10.6c-0.5,0.1-0.9,0.2-1.3,0.2c-0.1,0.4-0.2,0.9-0.2,1.3c0.2-0.3,0.5-0.5,0.8-0.8
	S12.3,10.9,12.5,10.6L12.5,10.6z M11,19.5c0.1,0.5,0.2,0.9,0.2,1.3c0.4,0.1,0.9,0.2,1.3,0.2c-0.3-0.2-0.5-0.5-0.8-0.8
	S11.2,19.7,11,19.5L11,19.5z M15,22.1c0.4,0.3,0.7,0.5,1.1,0.8c0.4-0.2,0.8-0.5,1.1-0.8c-0.4,0-0.7,0-1.1,0S15.4,22.1,15,22.1
	L15,22.1z M19.8,21c0.5-0.1,0.9-0.2,1.3-0.2c0.1-0.4,0.2-0.9,0.2-1.3c-0.2,0.3-0.5,0.5-0.8,0.8S20.1,20.8,19.8,21L19.8,21z
	 M20.9,21.6c-0.7,0.1-1.4,0.2-2.2,0.3c-0.6,0.5-1.2,0.9-1.8,1.3c0.9,0.5,1.9,1,2.9,1.3C20.2,23.6,20.6,22.7,20.9,21.6L20.9,21.6z
	 M16.2,27.6c1.2,0,2.3-0.9,3.2-2.3c-1.1-0.4-2.2-0.9-3.2-1.5c-1,0.6-2.1,1.1-3.2,1.5C13.9,26.7,15,27.6,16.2,27.6L16.2,27.6z
	 M12.6,24.6c1-0.3,2-0.8,2.9-1.3c-0.6-0.4-1.2-0.8-1.8-1.3c-0.8-0.1-1.5-0.2-2.2-0.3C11.7,22.7,12.1,23.6,12.6,24.6L12.6,24.6z
	 M7.9,24.1c0.6,0.6,1.5,0.9,2.4,0.8c0.5,0,1-0.1,1.5-0.2c-0.5-1.1-0.9-2.2-1.2-3.3c-1.2-0.3-2.3-0.7-3.3-1.2C6.8,22,7,23.3,7.9,24.1
	L7.9,24.1z M9.9,14.7c-0.3,0.4-0.5,0.7-0.8,1.1c0.2,0.4,0.5,0.8,0.8,1.1c0-0.4,0-0.7,0-1.1S9.9,15.1,9.9,14.7L9.9,14.7z M10,13.3
	c0.1-0.8,0.2-1.5,0.3-2.2c-1,0.3-2,0.6-2.9,1.1c0,0.1,0.1,0.2,0.1,0.4c0.3,0.9,0.7,1.7,1.2,2.5C9.1,14.5,9.6,13.9,10,13.3L10,13.3z
	 M10,18.4c-0.5-0.6-0.9-1.2-1.3-1.8c-0.5,0.8-0.9,1.6-1.2,2.5c0,0.1-0.1,0.2-0.1,0.4c0.9,0.5,1.9,0.9,2.9,1.1
	C10.2,19.9,10.1,19.1,10,18.4L10,18.4z M6.7,12.6c-1.4,0.9-2.3,2-2.3,3.2s0.9,2.3,2.3,3.2c0-0.1,0-0.1,0.1-0.2c0.4-1,0.9-2.1,1.4-3
	c-0.6-0.9-1.1-2-1.4-3C6.8,12.8,6.8,12.7,6.7,12.6L6.7,12.6z M10.2,6.7C9.4,6.6,8.5,6.9,7.9,7.5c-0.8,0.8-1,2.2-0.7,3.9
	c1.1-0.5,2.2-0.9,3.3-1.2c0.3-1.2,0.7-2.3,1.2-3.3C11.3,6.8,10.8,6.7,10.2,6.7z M11.4,10c0.7-0.1,1.4-0.2,2.2-0.3
	c0.6-0.5,1.2-0.9,1.8-1.3c-0.9-0.5-1.9-1-2.9-1.3C12.1,8,11.7,9,11.4,10L11.4,10z M16.2,4.1C15,4.1,13.9,5,13,6.4
	c1.1,0.4,2.2,0.9,3.2,1.5c1-0.6,2.1-1.1,3.2-1.5C18.5,5,17.3,4.1,16.2,4.1L16.2,4.1z M19.8,7.1c-1,0.3-2,0.8-2.9,1.3
	c0.6,0.4,1.2,0.8,1.8,1.3c0.8,0.1,1.5,0.2,2.2,0.3C20.6,9,20.2,8,19.8,7.1z M24.5,7.5C23.8,7,23,6.6,22.1,6.7c-0.5,0-1,0.1-1.5,0.2
	c0.5,1.1,0.9,2.2,1.2,3.3c1.2,0.3,2.3,0.7,3.3,1.2C25.5,9.7,25.3,8.4,24.5,7.5L24.5,7.5z M25.6,12.6c0,0.1,0,0.1-0.1,0.2
	c-0.4,1-0.9,2.1-1.4,3c0.6,0.9,1.1,2,1.4,3c0,0.1,0,0.1,0.1,0.2c1.4-0.9,2.3-2,2.3-3.2S27,13.5,25.6,12.6L25.6,12.6z M22.8,8.4h0.8
	v0.8h-0.8V8.4z M8.7,8.4h0.8v0.8H8.7V8.4z M9.5,23.3H8.7v-0.8h0.8V23.3z M16.3,19.6c-2.6-1.1-2.9-2.3-2.9-2.3v-4.4
	c1-0.2,1.9-0.4,2.9-0.4c1,0,2,0.2,2.9,0.4v4.4C19.2,17.3,18.9,18.4,16.3,19.6z M18.6,13.4c-1.5-0.4-3.1-0.4-4.6,0v3.9
	c0.6,0.7,1.4,1.2,2.3,1.6c0.9-0.3,1.7-0.8,2.3-1.6V13.4z M23.6,23.3h-0.8v-0.8h0.8C23.6,22.5,23.6,23.3,23.6,23.3z"/>
</svg>
