<?xml version="1.0" encoding="utf-8"?>
<!-- Generator: Adobe Illustrator 22.0.1, SVG Export Plug-In . SVG Version: 6.00 Build 0)  -->
<svg version="1.1" id="zerotrust_icon" xmlns="http://www.w3.org/2000/svg" xmlns:xlink="http://www.w3.org/1999/xlink" x="0px"
	 y="0px" viewBox="0 0 30 30" style="enable-background:new 0 0 30 30;" xml:space="preserve">
<style type="text/css">
	.st0{fill:none;}
	.st1{opacity:0.3;fill:url(#Rectangle_2_copy_1_);enable-background:new    ;}
	.st2{fill:#3274FF;}
</style>
<rect id="Rectangle_2_copy_3" class="st0" width="30" height="30"/>
<linearGradient id="Rectangle_2_copy_1_" gradientUnits="userSpaceOnUse" x1="1" y1="13.5" x2="26" y2="13.5">
	<stop  offset="0" style="stop-color:#3274FF"/>
	<stop  offset="1" style="stop-color:#FFFFFF;stop-opacity:0"/>
</linearGradient>
<path id="Rectangle_2_copy" class="st1" d="M8,1h18v19H8V1z M8,1L1,7v19l7-6V1z"/>
<path id="SDP_零信任安全bgicon" class="st2" d="M27.4,6.2c-0.3,0-0.6-0.1-0.9-0.3L22.1,10c0.6,0.7,0.5,1.7-0.2,2.3
	s-1.7,0.5-2.3-0.2c-0.6-0.7-0.5-1.7,0.2-2.3c0.5-0.4,1.2-0.5,1.8-0.2L26,5.5c-0.5-0.8-0.3-1.8,0.5-2.2s1.8-0.3,2.2,0.5
	S29,5.5,28.3,6C28,6.2,27.7,6.3,27.4,6.2z M20.9,10.1c-0.5,0-1,0.4-1,1s0.4,1,1,1c0.5,0,1-0.4,1-1C21.9,10.6,21.4,10.1,20.9,10.1
	L20.9,10.1z M27.4,3.6c-0.5,0-1,0.4-1,1s0.4,1,1,1c0.5,0,1-0.4,1-1S27.9,3.6,27.4,3.6z M15.7,9.2h1v1h-1
	C15.7,10.1,15.7,9.2,15.7,9.2z M15.7,7.2h1v1h-1C15.7,8.2,15.7,7.2,15.7,7.2z M12.8,4.9V4.3h13v0.6H12.8z M11.1,6.2
	c-0.3,0-0.6-0.1-0.9-0.3L5.8,10c0.6,0.7,0.5,1.7-0.2,2.3S4,12.9,3.4,12.2s-0.5-1.7,0.2-2.3C4,9.5,4.7,9.4,5.3,9.7l4.4-4.1
	c-0.5-0.8-0.3-1.8,0.5-2.2C11,2.8,12,3,12.5,3.7C13,4.5,12.8,5.5,12,6C11.7,6.2,11.4,6.3,11.1,6.2z M4.6,10.1c-0.5,0-1,0.4-1,1
	c0,0.5,0.4,1,1,1s1-0.4,1-1S5.2,10.1,4.6,10.1L4.6,10.1z M11.1,3.6c-0.5,0-1,0.4-1,1s0.4,1,1,1c0.5,0,1-0.4,1-1S11.7,3.6,11.1,3.6z
	 M7.9,16.6h-1v-1h1V16.6z M9.8,16.6h-1v-1h1V16.6z M4.9,25.8H4.3v-13h0.6V25.8z M9.8,21.8C9.3,21,9.5,20,10.2,19.5
	C11,19,12,19.2,12.5,20s0.3,1.8-0.5,2.2c-0.5,0.4-1.2,0.3-1.8,0l-4.4,4.1C6.4,27,6.4,28,5.7,28.6S4,29.1,3.4,28.5s-0.5-1.7,0.2-2.3
	c0.5-0.4,1.2-0.5,1.8-0.2L9.8,21.8z M11.1,21.9c0.5,0,1-0.4,1-1s-0.4-1-1-1c-0.5,0-1,0.4-1,1S10.6,21.9,11.1,21.9L11.1,21.9z
	 M4.6,26.4c-0.5,0-1,0.4-1,1c0,0.5,0.4,1,1,1s1-0.4,1-1S5.2,26.4,4.6,26.4L4.6,26.4z M16.6,23.5h-1v-1h1V23.5z M16.6,25.4h-1v-1h1
	V25.4z M19.2,27.1v0.6h-13V27C6.2,27,19.2,27,19.2,27.1z M20.9,25.8c0.2,0,0.5,0.1,0.7,0.2l4.4-4.1c-0.5-0.8-0.3-1.8,0.5-2.2
	c0.8-0.5,1.8-0.3,2.2,0.5c0.5,0.8,0.3,1.8-0.5,2.2c-0.5,0.4-1.2,0.3-1.8,0L22,26.5c0.6,0.7,0.5,1.7-0.2,2.3s-1.7,0.5-2.3-0.2
	c-0.6-0.7-0.5-1.7,0.2-2.3C20.1,25.9,20.5,25.7,20.9,25.8z M27.4,21.9c0.5,0,1-0.4,1-1s-0.4-1-1-1c-0.5,0-1,0.4-1,1
	S26.8,21.9,27.4,21.9z M20.9,28.4c0.5,0,1-0.4,1-1s-0.4-1-1-1c-0.5,0-1,0.4-1,1S20.3,28.4,20.9,28.4z M24.1,15.7h1v1h-1
	C24.1,16.6,24.1,15.7,24.1,15.7z M22.2,15.7h1v1h-1C22.2,16.6,22.2,15.7,22.2,15.7z M27,6.2h0.7v13H27V6.2z M21.2,15.7v4.9h4.5v0.7
	h-4.5v4.5h-0.7v-4.5h-3.9v0.3h-1v-0.3h-2.9v-0.7h7.8v-3.9h-0.3v-1h0.3v-2.9h0.7V15.7z M18.3,15.7h1v1h-1
	C18.3,16.6,18.3,15.7,18.3,15.7z M15.7,18.6h1v1h-1C15.7,19.6,15.7,18.6,15.7,18.6z M15.7,13.1h1v1h-1
	C15.7,14.1,15.7,13.1,15.7,13.1z M12.8,15.7h1v1h-1C12.8,16.6,12.8,15.7,12.8,15.7z M16.7,11.5v0.6h-1v-0.7h-4.2v4.2h0.3v1h-0.3v2.6
	h-0.6v-7.8H6.2v-0.6h4.6V6.2h0.6v4.6h7.8v0.6C19.2,11.4,16.6,11.4,16.7,11.5z"/>
</svg>
